D:\PredSim\limbproperties\Ratio80\Ratio80_quasi_random_1.5.mot
version=1
nRows=4
nColumns=124
inDegrees=yes
endheader
                time	         pelvis_tilt	         pelvis_list	     pelvis_rotation	           pelvis_tx	           pelvis_ty	           pelvis_tz	       hip_flexion_r	     hip_adduction_r	      hip_rotation_r	        knee_angle_r	       ankle_angle_r	    subtalar_angle_r	         mtp_angle_r	       hip_flexion_l	     hip_adduction_l	      hip_rotation_l	        knee_angle_l	       ankle_angle_l	    subtalar_angle_l	         mtp_angle_l	    lumbar_extension	      lumbar_bending	     lumbar_rotation	          arm_flex_r	           arm_add_r	           arm_rot_r	        elbow_flex_r	          arm_flex_l	           arm_add_l	           arm_rot_l	        elbow_flex_l	glut_med1_r/activation	glut_med2_r/activation	glut_med3_r/activation	glut_min1_r/activation	glut_min2_r/activation	glut_min3_r/activation	semimem_r/activation	semiten_r/activation	bifemlh_r/activation	bifemsh_r/activation	    sar_r/activation	add_long_r/activation	add_brev_r/activation	add_mag1_r/activation	add_mag2_r/activation	add_mag3_r/activation	    tfl_r/activation	   pect_r/activation	   grac_r/activation	glut_max1_r/activation	glut_max2_r/activation	glut_max3_r/activation	iliacus_r/activation	  psoas_r/activation	quad_fem_r/activation	    gem_r/activation	   peri_r/activation	rect_fem_r/activation	vas_med_r/activation	vas_int_r/activation	vas_lat_r/activation	med_gas_r/activation	lat_gas_r/activation	 soleus_r/activation	tib_post_r/activation	flex_dig_r/activation	flex_hal_r/activation	tib_ant_r/activation	per_brev_r/activation	per_long_r/activation	per_tert_r/activation	ext_dig_r/activation	ext_hal_r/activation	glut_med1_l/activation	glut_med2_l/activation	glut_med3_l/activation	glut_min1_l/activation	glut_min2_l/activation	glut_min3_l/activation	semimem_l/activation	semiten_l/activation	bifemlh_l/activation	bifemsh_l/activation	    sar_l/activation	add_long_l/activation	add_brev_l/activation	add_mag1_l/activation	add_mag2_l/activation	add_mag3_l/activation	    tfl_l/activation	   pect_l/activation	   grac_l/activation	glut_max1_l/activation	glut_max2_l/activation	glut_max3_l/activation	iliacus_l/activation	  psoas_l/activation	quad_fem_l/activation	    gem_l/activation	   peri_l/activation	rect_fem_l/activation	vas_med_l/activation	vas_int_l/activation	vas_lat_l/activation	med_gas_l/activation	lat_gas_l/activation	 soleus_l/activation	tib_post_l/activation	flex_dig_l/activation	flex_hal_l/activation	tib_ant_l/activation	per_brev_l/activation	per_long_l/activation	per_tert_l/activation	ext_dig_l/activation	ext_hal_l/activation	 ercspn_r/activation	 ercspn_l/activation	 intobl_r/activation	 intobl_l/activation	 extobl_r/activation	 extobl_l/activation	
          1.00598273	         -8.25876758	         -1.42631373	          3.81881286	          1.49105204	          0.89160116	         -0.00455121	         34.84520588	          1.96842990	         -3.05541766	         -9.02363555	          8.31905568	         -3.40708790	          0.17005624	        -11.66458838	          0.06757930	          8.13300263	        -12.03725213	          5.19580193	         14.18555623	         17.70445466	          2.34934573	          0.60550728	         -3.91041993	         -7.05645582	        -13.69911874	          7.53315861	         25.52238035	          2.16676169	        -13.55294597	         16.60162654	         33.28217204	          0.06356828	          0.05000108	          0.05838153	          0.05000068	          0.05000082	          0.05000180	          0.34209101	          0.15153087	          0.25213763	          0.06817192	          0.05000109	          0.08095316	          0.12102799	          0.16389782	          0.16066882	          0.17186682	          0.05000191	          0.05000554	          0.15409469	          0.12308024	          0.16020680	          0.15360293	          0.05111620	          0.05000048	          0.16022307	          0.05000053	          0.05000081	          0.05000021	          0.05000076	          0.05000053	          0.05000062	          0.06243860	          0.05000140	          0.05527168	          0.06188870	          0.05002307	          0.05001767	          0.42598630	          0.18503633	          0.18214802	          0.14159633	          0.52174342	          0.28471643	          0.14722003	          0.10853580	          0.08618031	          0.20175100	          0.17296626	          0.12756710	          0.05000152	          0.05000031	          0.05000023	          0.07331857	          0.07960748	          0.16103295	          0.05000079	          0.05000132	          0.05000237	          0.05000099	          0.57647531	          0.05000845	          0.05000216	          0.05000827	          0.05000438	          0.05000174	          0.24370569	          0.87013334	          0.06312038	          0.05748906	          0.07960256	          0.37225424	          0.07984048	          0.08579602	          0.07379313	          0.36199590	          0.43671261	          0.30983098	          0.34788431	          0.32976708	          0.40090644	          0.05000001	          0.20301993	          0.22932549	          0.05000010	          0.05000003	          0.05000012	          0.08408599	          0.05000003	          0.07166686	          0.05000003	          0.07960166	          0.05000005	
          1.01604255	         -8.24221155	         -1.52413804	          4.01894026	          1.50920823	          0.89079675	         -0.00426382	         34.38709717	          2.26419784	         -2.87215292	         -8.99663813	          7.77081104	         -3.38382435	          0.20243999	        -11.51433225	         -0.16889130	          7.98127646	        -14.12213033	          3.47879686	         15.00529090	         19.25588194	          2.58007429	          0.83504497	         -3.95900073	         -7.62266306	        -13.72416501	          7.17835942	         25.21344457	          1.72167384	        -13.59394442	         16.86012266	         33.79390784	          0.05838316	          0.05838331	          0.05000039	          0.05838332	          0.05838327	          0.05838190	          0.30768529	          0.12977290	          0.22598203	          0.05838346	          0.05000542	          0.07961077	          0.19789885	          0.14037157	          0.20592795	          0.19895856	          0.05000022	          0.06816775	          0.13197084	          0.20098169	          0.21865415	          0.22275515	          0.05884428	          0.05000039	          0.21222644	          0.13695713	          0.11316584	          0.05000033	          0.05000471	          0.07583392	          0.05000483	          0.05409929	          0.05000054	          0.05022054	          0.05300273	          0.05000140	          0.05000111	          0.48673504	          0.26142905	          0.20051272	          0.23708078	          0.57358693	          0.34528533	          0.12608087	          0.09295130	          0.07380583	          0.17278183	          0.14813026	          0.10924995	          0.05000088	          0.05000019	          0.05000014	          0.06279084	          0.06817706	          0.21503676	          0.16683537	          0.05000136	          0.05000237	          0.05000050	          0.58425195	          0.05838732	          0.05000589	          0.05000171	          0.05000104	          0.05000064	          0.20871227	          0.82670506	          0.08868896	          0.05000257	          0.06817263	          0.31880267	          0.08974138	          0.07563978	          0.08632022	          0.31001725	          0.37400548	          0.26534263	          0.29793247	          0.28241740	          0.34334113	          0.05000001	          0.17386867	          0.20381270	          0.05000012	          0.05000003	          0.05000013	          0.07443096	          0.05729118	          0.06137629	          0.05000001	          0.06817175	          0.05000003	
          1.02610238	         -8.21995335	         -1.62945660	          4.19558832	          1.52748566	          0.88992615	         -0.00396531	         33.95715477	          2.54913437	         -2.64822567	         -9.71831174	          6.69816740	         -3.32211235	          0.23820230	        -11.19123150	         -0.39117901	          7.84018184	        -16.48266138	          1.56873619	         15.77669237	         20.73467645	          2.81496801	          1.07805685	         -3.98660009	         -8.16474719	        -13.76022267	          6.88934404	         24.86982820	          1.24919933	        -13.63584797	         17.09768136	         34.28472654	          0.05000006	          0.05000033	          0.18506294	          0.05000017	          0.05000017	          0.05000024	          0.26350506	          0.11113905	          0.19353350	          0.05000040	          0.05000062	          0.06817970	          0.26604349	          0.32626871	          0.29105947	          0.22299735	          0.05000070	          0.05838629	          0.13825707	          0.22487143	          0.24492643	          0.24579588	          0.05838312	          0.05838321	          0.40331775	          0.11729170	          0.09691658	          0.05714944	          0.08059316	          0.11744787	          0.06946307	          0.05838317	          0.05838319	          0.05838317	          0.05000036	          0.05000149	          0.05837869	          0.52360838	          0.29659063	          0.20579261	          0.36253750	          0.63900807	          0.29570645	          0.10797706	          0.07960456	          0.06320821	          0.14797231	          0.12686043	          0.09356292	          0.05000559	          0.05000074	          0.05838236	          0.05377479	          0.05838776	          0.27500496	          0.26195678	          0.31286744	          0.10639567	          0.10853115	          0.57719478	          0.05000390	          0.05838144	          0.05838521	          0.05838501	          0.07092891	          0.17874350	          0.76496007	          0.08789081	          0.05838509	          0.05838386	          0.27302613	          0.09289390	          0.09293663	          0.07392859	          0.26550216	          0.32030240	          0.22724233	          0.25515272	          0.24186576	          0.29404131	          0.05000005	          0.14890313	          0.17454762	          0.05000011	          0.05000006	          0.05000023	          0.06374350	          0.07897796	          0.05256334	          0.05838318	          0.05838306	          0.05000014	
          1.03616221	         -8.19397064	         -1.76799801	          4.34257126	          1.54570750	          0.88907295	         -0.00366985	         33.54592448	          2.80475516	         -2.37945887	        -10.92159676	          5.22615696	         -3.20881589	          0.22434581	        -10.65653498	         -0.61494982	          7.72193102	        -19.15919602	         -0.49204293	         16.47424775	         21.91951391	          3.04090724	          1.36232121	         -3.99061889	         -8.64047922	        -13.81123203	          6.68410406	         24.45443950	          0.78395626	        -13.66083694	         17.30943227	         34.71795049	          0.30081270	          0.42016414	          0.51220503	          0.32722137	          0.39694128	          0.39868145	          0.22566862	          0.10133936	          0.16574422	          0.05838335	          0.05000081	          0.05838988	          0.22784258	          0.27942017	          0.24926681	          0.24689815	          0.05000028	          0.05000338	          0.11840505	          0.38136023	          0.34030449	          0.30966689	          0.05000006	          0.05000008	          0.46976983	          0.10045200	          0.23925189	          0.05000004	          0.06902110	          0.10058474	          0.05948916	          0.05000002	          0.05000006	          0.05000000	          0.05000028	          0.05000063	          0.05000034	          0.71484742	          0.25400354	          0.17624311	          0.61843556	          0.78392189	          0.57843248	          0.09301127	          0.06817424	          0.05413222	          0.15009164	          0.10864476	          0.08012835	          0.05009863	          0.05000034	          0.05000014	          0.05000017	          0.05000635	          0.29862799	          0.23690817	          0.26794319	          0.09111881	          0.09294737	          0.63755562	          0.07022649	          0.05000067	          0.05000208	          0.05000171	          0.06074435	          0.15747881	          0.71759471	          0.07527067	          0.05000170	          0.05000060	          0.23382258	          0.07955539	          0.07959197	          0.06331328	          0.22737895	          0.27431049	          0.19461281	          0.21851566	          0.20713681	          0.25182036	          0.05000013	          0.12752244	          0.14948455	          0.05838440	          0.14002713	          0.05000372	          0.05459063	          0.12704679	          0.07960126	          0.05000000	          0.05000004	          0.05000009	
